# xmcd
# Track frame offsets:
# 182
# 12592
# 27117
# 41955
# 55725
# 67245
# 78810
# 93917
# 108930
# 126692
#
# Disc length: 1837 seconds
# Revision: 0
# Processed by: cddbd v1.5PL3 Copyright (c) Steve Scherf et al.
# Submitted via: VisiTrax 2.9.9.209 - For more info visit www.synapsa.com
#
DISCID=86072b0a
DTITLE=Campbell, Glen - Christmas with Glen Campbell
DYEAR=1992
DGENRE=Christmas
TTITLE0=I'll Be Home For Christmas
TTITLE1=Have Yourself A Merry Little Christmas
TTITLE2=Thers's No Place Like Home For The Holidays
TTITLE3=The Christmas Song
TTITLE4=Blue Christmas
TTITLE5=Pretty Paper
TTITLE6=Christmas Is For Children
TTITLE7=The Night Before Christmas
TTITLE8=O Holy Night
TTITLE9=Silent Night, Holy Night
EXTD=
EXTT0=
EXTT1=
EXTT2=
EXTT3=
EXTT4=
EXTT5=
EXTT6=
EXTT7=
EXTT8=
EXTT9=
PLAYORDER=
